<mxfile host="Electron" modified="2024-04-28T19:59:55.407Z" agent="Mozilla/5.0 (Windows NT 10.0; Win64; x64) AppleWebKit/537.36 (KHTML, like Gecko) draw.io/23.1.5 Chrome/120.0.6099.109 Electron/28.1.0 Safari/537.36" etag="mDLVEOxgCOzEU7Zzl0Lh" version="23.1.5" type="device">
  <diagram name="Page-1" id="O-xKSkLPYl-1Bb56oxQh">
    <mxGraphModel dx="1313" dy="786" grid="0" gridSize="10" guides="1" tooltips="1" connect="1" arrows="1" fold="1" page="1" pageScale="1" pageWidth="827" pageHeight="1169" math="0" shadow="0">
      <root>
        <mxCell id="0" />
        <mxCell id="1" parent="0" />
        <mxCell id="xjWETZBw5iXF0zUTvkWJ-1" style="edgeStyle=orthogonalEdgeStyle;rounded=0;orthogonalLoop=1;jettySize=auto;html=1;exitX=0.5;exitY=1;exitDx=0;exitDy=0;entryX=0.5;entryY=0;entryDx=0;entryDy=0;strokeWidth=2;" edge="1" parent="1" source="xjWETZBw5iXF0zUTvkWJ-2" target="xjWETZBw5iXF0zUTvkWJ-11">
          <mxGeometry relative="1" as="geometry" />
        </mxCell>
        <mxCell id="xjWETZBw5iXF0zUTvkWJ-2" value="&lt;b&gt;&lt;font style=&quot;font-size: 15px;&quot;&gt;ِActor logs in with Email and Password&lt;/font&gt;&lt;/b&gt;" style="rounded=1;whiteSpace=wrap;html=1;arcSize=40;fontColor=#000000;fillColor=#ffffc0;strokeColor=#ff0000;" vertex="1" parent="1">
          <mxGeometry x="354" y="95" width="145" height="78" as="geometry" />
        </mxCell>
        <mxCell id="xjWETZBw5iXF0zUTvkWJ-34" style="edgeStyle=orthogonalEdgeStyle;rounded=0;orthogonalLoop=1;jettySize=auto;html=1;exitX=0.5;exitY=1;exitDx=0;exitDy=0;entryX=0.5;entryY=0;entryDx=0;entryDy=0;strokeWidth=2;" edge="1" parent="1" source="xjWETZBw5iXF0zUTvkWJ-4" target="xjWETZBw5iXF0zUTvkWJ-7">
          <mxGeometry relative="1" as="geometry" />
        </mxCell>
        <mxCell id="xjWETZBw5iXF0zUTvkWJ-4" value="&lt;b style=&quot;&quot;&gt;&lt;font style=&quot;font-size: 16px;&quot;&gt;System logs the actor in&lt;/font&gt;&lt;/b&gt;" style="rounded=1;whiteSpace=wrap;html=1;arcSize=40;fontColor=#000000;fillColor=#ffffc0;strokeColor=#ff0000;" vertex="1" parent="1">
          <mxGeometry x="365" y="514" width="120" height="70" as="geometry" />
        </mxCell>
        <mxCell id="xjWETZBw5iXF0zUTvkWJ-27" style="edgeStyle=orthogonalEdgeStyle;rounded=0;orthogonalLoop=1;jettySize=auto;html=1;exitX=0.5;exitY=1;exitDx=0;exitDy=0;entryX=0.5;entryY=0;entryDx=0;entryDy=0;strokeWidth=2;" edge="1" parent="1" source="xjWETZBw5iXF0zUTvkWJ-6" target="xjWETZBw5iXF0zUTvkWJ-2">
          <mxGeometry relative="1" as="geometry" />
        </mxCell>
        <mxCell id="xjWETZBw5iXF0zUTvkWJ-6" value="" style="ellipse;html=1;shape=startState;fillColor=#000000;strokeColor=#ff0000;" vertex="1" parent="1">
          <mxGeometry x="411" width="30" height="30" as="geometry" />
        </mxCell>
        <mxCell id="xjWETZBw5iXF0zUTvkWJ-7" value="" style="ellipse;html=1;shape=endState;fillColor=#000000;strokeColor=#ff0000;" vertex="1" parent="1">
          <mxGeometry x="410" y="668" width="30" height="30" as="geometry" />
        </mxCell>
        <mxCell id="xjWETZBw5iXF0zUTvkWJ-9" style="edgeStyle=orthogonalEdgeStyle;rounded=0;orthogonalLoop=1;jettySize=auto;html=1;exitX=1;exitY=0.5;exitDx=0;exitDy=0;strokeWidth=2;" edge="1" parent="1" source="xjWETZBw5iXF0zUTvkWJ-11">
          <mxGeometry relative="1" as="geometry">
            <mxPoint x="426" y="51" as="targetPoint" />
            <Array as="points">
              <mxPoint x="579" y="362" />
              <mxPoint x="579" y="51" />
            </Array>
          </mxGeometry>
        </mxCell>
        <mxCell id="xjWETZBw5iXF0zUTvkWJ-10" value="&lt;font size=&quot;1&quot; style=&quot;&quot;&gt;&lt;b style=&quot;font-size: 16px;&quot;&gt;Invalid&lt;/b&gt;&lt;/font&gt;" style="edgeLabel;html=1;align=center;verticalAlign=middle;resizable=0;points=[];" vertex="1" connectable="0" parent="xjWETZBw5iXF0zUTvkWJ-9">
          <mxGeometry x="-0.8631" y="2" relative="1" as="geometry">
            <mxPoint x="12" y="-13" as="offset" />
          </mxGeometry>
        </mxCell>
        <mxCell id="xjWETZBw5iXF0zUTvkWJ-29" style="edgeStyle=orthogonalEdgeStyle;rounded=0;orthogonalLoop=1;jettySize=auto;html=1;exitX=0;exitY=0.5;exitDx=0;exitDy=0;entryX=0.5;entryY=0;entryDx=0;entryDy=0;strokeWidth=2;" edge="1" parent="1" source="xjWETZBw5iXF0zUTvkWJ-11" target="xjWETZBw5iXF0zUTvkWJ-28">
          <mxGeometry relative="1" as="geometry" />
        </mxCell>
        <mxCell id="xjWETZBw5iXF0zUTvkWJ-11" value="" style="rhombus;whiteSpace=wrap;html=1;fontColor=#000000;fillColor=#ffffc0;strokeColor=#ff0000;" vertex="1" parent="1">
          <mxGeometry x="376" y="332" width="100" height="60" as="geometry" />
        </mxCell>
        <mxCell id="xjWETZBw5iXF0zUTvkWJ-12" value="&lt;font size=&quot;1&quot; style=&quot;&quot;&gt;&lt;b style=&quot;font-size: 16px;&quot;&gt;Valid&lt;/b&gt;&lt;/font&gt;" style="text;html=1;align=center;verticalAlign=middle;resizable=0;points=[];autosize=1;strokeColor=none;fillColor=none;" vertex="1" parent="1">
          <mxGeometry x="305" y="334" width="55" height="31" as="geometry" />
        </mxCell>
        <mxCell id="xjWETZBw5iXF0zUTvkWJ-30" style="edgeStyle=orthogonalEdgeStyle;rounded=0;orthogonalLoop=1;jettySize=auto;html=1;exitX=1;exitY=0.5;exitDx=0;exitDy=0;entryX=0.5;entryY=0;entryDx=0;entryDy=0;strokeWidth=2;" edge="1" parent="1" source="xjWETZBw5iXF0zUTvkWJ-28" target="xjWETZBw5iXF0zUTvkWJ-4">
          <mxGeometry relative="1" as="geometry" />
        </mxCell>
        <mxCell id="xjWETZBw5iXF0zUTvkWJ-33" value="&lt;font style=&quot;font-size: 16px;&quot;&gt;&lt;b&gt;Valid&lt;/b&gt;&lt;/font&gt;" style="edgeLabel;html=1;align=center;verticalAlign=middle;resizable=0;points=[];" vertex="1" connectable="0" parent="xjWETZBw5iXF0zUTvkWJ-30">
          <mxGeometry x="-0.3529" y="-3" relative="1" as="geometry">
            <mxPoint y="-16" as="offset" />
          </mxGeometry>
        </mxCell>
        <mxCell id="xjWETZBw5iXF0zUTvkWJ-31" style="edgeStyle=orthogonalEdgeStyle;rounded=0;orthogonalLoop=1;jettySize=auto;html=1;exitX=0;exitY=0.5;exitDx=0;exitDy=0;strokeWidth=2;" edge="1" parent="1">
          <mxGeometry relative="1" as="geometry">
            <mxPoint x="426" y="51" as="targetPoint" />
            <mxPoint x="245" y="456.0000000000001" as="sourcePoint" />
            <Array as="points">
              <mxPoint x="225" y="456" />
              <mxPoint x="225" y="51" />
            </Array>
          </mxGeometry>
        </mxCell>
        <mxCell id="xjWETZBw5iXF0zUTvkWJ-32" value="&lt;b style=&quot;font-size: 14px;&quot;&gt;&lt;font style=&quot;font-size: 14px;&quot;&gt;The system denies&lt;br&gt;access and prompts the user to re-log in&lt;/font&gt;&lt;/b&gt;" style="edgeLabel;html=1;align=center;verticalAlign=middle;resizable=0;points=[];" vertex="1" connectable="0" parent="xjWETZBw5iXF0zUTvkWJ-31">
          <mxGeometry x="-0.0763" relative="1" as="geometry">
            <mxPoint y="44" as="offset" />
          </mxGeometry>
        </mxCell>
        <mxCell id="xjWETZBw5iXF0zUTvkWJ-28" value="" style="rhombus;whiteSpace=wrap;html=1;fontColor=#000000;fillColor=#ffffc0;strokeColor=#ff0000;" vertex="1" parent="1">
          <mxGeometry x="246" y="427" width="100" height="60" as="geometry" />
        </mxCell>
      </root>
    </mxGraphModel>
  </diagram>
</mxfile>
